<svg xmlns="http://www.w3.org/2000/svg" version="1.1" xmlns:xlink="http://www.w3.org/1999/xlink" xmlns:svgjs="http://svgjs.dev/svgjs" width="2000" height="363" viewBox="0 0 2000 363"><g transform="matrix(1,0,0,1,-1.2121212121212466,-0.33473453088606675)"><svg viewBox="0 0 396 72" data-background-color="#ffffff" preserveAspectRatio="xMidYMid meet" height="363" width="2000" xmlns="http://www.w3.org/2000/svg" xmlns:xlink="http://www.w3.org/1999/xlink"><g id="tight-bounds" transform="matrix(1,0,0,1,0.2400000000000091,0.0663936259608704)"><svg viewBox="0 0 395.52 71.86721274807829" height="71.86721274807829" width="395.52"><g><svg viewBox="0 0 489.11047933576293 88.87289359763811" height="71.86721274807829" width="395.52"><g><rect width="5.79931205605007" height="64.62898557570642" x="410.70144517290595" y="12.121954010965844" fill="#0074d9" opacity="1" stroke-width="0" stroke="transparent" fill-opacity="1" class="rect-yte-0" data-fill-palette-color="primary" rx="1%" id="yte-0" data-palette-color="#0074d9"></rect></g><g transform="matrix(1,0,0,1,0,12.28272263180093)"><svg viewBox="0 0 395.52 64.30744833403625" height="64.30744833403625" width="395.52"><g id="textblocktransform"><svg viewBox="0 0 395.52 64.30744833403625" height="64.30744833403625" width="395.52" id="textblock"><g><svg viewBox="0 0 395.52 64.30744833403625" height="64.30744833403625" width="395.52"><g transform="matrix(1,0,0,1,0,0)"><svg width="395.52" viewBox="2.5 -37.5 237.08 38.55" height="64.30744833403625" data-palette-color="#0074d9"><g class="wordmark-text-0" data-fill-palette-color="primary" id="text-0"><path d="M26.85-7.15L27.8-7.15 27.8 1.05 26.85 1.05Q26.85 0.75 26.7 0.38 26.55 0 26.3 0L26.3 0 2.55 0 2.55-0.95Q2.9-0.95 3.28-1.1 3.65-1.25 3.65-1.5L3.65-1.5 3.65-36Q3.65-36.25 3.25-36.4 2.85-36.55 2.5-36.55L2.5-36.55 2.5-37.5 11.5-37.5 11.5-36.55Q11.15-36.55 10.75-36.4 10.35-36.25 10.35-36L10.35-36 10.35-6.1 26.3-6.1Q26.55-6.1 26.7-6.48 26.85-6.85 26.85-7.15L26.85-7.15ZM54.1-21.5L54.1-1.5Q54.1-1.25 54.47-1.1 54.85-0.95 55.2-0.95L55.2-0.95 55.2 0 49 0 49-1.85Q46.35 0.45 42.85 0.45L42.85 0.45Q37.6 0.45 35.15-2.58 32.7-5.6 32.7-10.15L32.7-10.15 32.7-21.5Q32.7-21.75 32.32-21.9 31.95-22.05 31.6-22.05L31.6-22.05 31.6-23 40.1-23 40.1-22.05Q39.75-22.05 39.37-21.9 39-21.75 39-21.5L39-21.5 39-10.55Q39-8.4 40.1-6.93 41.2-5.45 43.5-5.45L43.5-5.45Q45.7-5.45 46.8-6.8 47.9-8.15 47.9-10.25L47.9-10.25 47.9-21.5Q47.9-21.75 47.52-21.9 47.15-22.05 46.8-22.05L46.8-22.05 46.8-23 55.2-23 55.2-22.05Q54.85-22.05 54.47-21.9 54.1-21.75 54.1-21.5L54.1-21.5ZM96.95-13.45L96.95-1.5Q96.95-1.25 97.32-1.1 97.7-0.95 98.09-0.95L98.09-0.95 98.09 0 89.3 0 89.3-0.95Q89.7-0.95 90.07-1.1 90.45-1.25 90.45-1.5L90.45-1.5 90.45-11.9Q90.45-18.1 86.34-18.1L86.34-18.1Q84.34-18.1 83.25-16.45 82.15-14.8 82.15-11.5L82.15-11.5 82.15-1.5Q82.15-1.25 82.52-1.1 82.9-0.95 83.3-0.95L83.3-0.95 83.3 0 74.55 0 74.55-0.95Q74.95-0.95 75.32-1.1 75.7-1.25 75.7-1.5L75.7-1.5 75.7-11.9Q75.7-14.65 74.84-16.38 74-18.1 71.7-18.1L71.7-18.1Q69.9-18.1 68.82-16.78 67.75-15.45 67.55-12.8L67.55-12.8 67.55-1.5Q67.55-1.25 67.95-1.1 68.34-0.95 68.7-0.95L68.7-0.95 68.7 0 59.8 0 59.8-0.95Q60.15-0.95 60.55-1.1 60.95-1.25 60.95-1.5L60.95-1.5 60.95-21.5Q60.95-21.75 60.57-21.9 60.2-22.05 59.85-22.05L59.85-22.05 59.85-23 67.55-23 67.55-21.65Q69.55-23.5 72.65-23.5L72.65-23.5Q75.45-23.5 77.47-22.43 79.5-21.35 80.65-19.45L80.65-19.45Q81.55-21.3 83.42-22.4 85.3-23.5 87.65-23.5L87.65-23.5Q92.34-23.5 94.65-20.7 96.95-17.9 96.95-13.45L96.95-13.45ZM107.74-27.2Q106.14-27.2 105.02-28.3 103.89-29.4 103.89-31.05L103.89-31.05Q103.89-32.6 105.02-33.73 106.14-34.85 107.74-34.85L107.74-34.85Q109.34-34.85 110.44-33.73 111.54-32.6 111.54-31.05L111.54-31.05Q111.54-29.4 110.44-28.3 109.34-27.2 107.74-27.2L107.74-27.2ZM104.49-21.5Q104.49-21.75 104.12-21.9 103.74-22.05 103.39-22.05L103.39-22.05 103.39-23 111.99-23 111.99-22.05Q111.64-22.05 111.27-21.9 110.89-21.75 110.89-21.5L110.89-21.5 110.89-1.5Q110.89-1.25 111.27-1.1 111.64-0.95 111.99-0.95L111.99-0.95 111.99 0 103.39 0 103.39-0.95Q103.74-0.95 104.12-1.1 104.49-1.25 104.49-1.5L104.49-1.5 104.49-21.5ZM142.09-13.45L142.09-1.5Q142.09-1.25 142.47-1.1 142.84-0.95 143.24-0.95L143.24-0.95 143.24 0 134.44 0 134.44-0.95Q134.84-0.95 135.22-1.1 135.59-1.25 135.59-1.5L135.59-1.5 135.59-11.9Q135.59-14.45 134.34-16.28 133.09-18.1 130.59-18.1L130.59-18.1Q128.04-18.1 126.47-16.4 124.89-14.7 124.89-11.5L124.89-11.5 124.89-1.5Q124.89-1.25 125.27-1.1 125.64-0.95 126.04-0.95L126.04-0.95 126.04 0 117.29 0 117.29-0.95Q117.69-0.95 118.07-1.1 118.44-1.25 118.44-1.5L118.44-1.5 118.44-21.5Q118.44-21.75 118.07-21.9 117.69-22.05 117.34-22.05L117.34-22.05 117.34-23 124.89-23 124.89-20.95Q126.19-22.15 127.97-22.83 129.74-23.5 131.59-23.5L131.59-23.5Q134.79-23.5 137.17-22.15 139.54-20.8 140.81-18.53 142.09-16.25 142.09-13.45L142.09-13.45ZM174.89-23L174.89-22.05Q174.54-22.05 174.16-21.9 173.79-21.75 173.79-21.5L173.79-21.5 173.79-1.5Q173.79-1.25 174.16-1.1 174.54-0.95 174.89-0.95L174.89-0.95 174.89 0 167.49 0 167.49-2.75Q164.34 0.65 159.54 0.65L159.54 0.65Q155.89 0.65 153.11-0.83 150.34-2.3 148.81-5.05 147.29-7.8 147.29-11.45L147.29-11.45Q147.29-15 148.96-17.78 150.64-20.55 153.44-22.08 156.24-23.6 159.54-23.6L159.54-23.6Q164.34-23.6 167.49-19.9L167.49-19.9 167.49-23 174.89-23ZM160.29-4.65Q162.34-4.65 163.96-5.58 165.59-6.5 166.49-8.03 167.39-9.55 167.39-11.3L167.39-11.3Q167.39-14.3 165.41-16.25 163.44-18.2 160.29-18.2L160.29-18.2Q157.24-18.2 155.26-16.3 153.29-14.4 153.29-11.45L153.29-11.45Q153.29-8.35 155.31-6.5 157.34-4.65 160.29-4.65L160.29-4.65ZM193.94-24.5L194.89-24.5 194.89-16.45 193.94-16.45Q193.94-16.8 193.79-17.25 193.64-17.7 193.39-17.75L193.39-17.75 193.04-17.75Q191.49-17.75 189.91-16.88 188.34-16 187.31-14.58 186.29-13.15 186.29-11.55L186.29-11.55 186.29-1.5Q186.29-1.25 186.66-1.1 187.04-0.95 187.39-0.95L187.39-0.95 187.39 0 178.99 0 178.99-0.95Q179.34-0.95 179.71-1.1 180.09-1.25 180.09-1.5L180.09-1.5 180.09-21.5Q180.09-21.75 179.71-21.9 179.34-22.05 178.99-22.05L178.99-22.05 178.99-23 186.29-23 186.29-20.85Q187.64-22.1 189.54-22.85 191.44-23.6 193.34-23.6L193.34-23.6 193.39-23.6 193.44-23.6Q193.69-23.6 193.81-23.9 193.94-24.2 193.94-24.5L193.94-24.5ZM202.98-27.2Q201.38-27.2 200.26-28.3 199.13-29.4 199.13-31.05L199.13-31.05Q199.13-32.6 200.26-33.73 201.38-34.85 202.98-34.85L202.98-34.85Q204.58-34.85 205.68-33.73 206.78-32.6 206.78-31.05L206.78-31.05Q206.78-29.4 205.68-28.3 204.58-27.2 202.98-27.2L202.98-27.2ZM199.73-21.5Q199.73-21.75 199.36-21.9 198.98-22.05 198.63-22.05L198.63-22.05 198.63-23 207.23-23 207.23-22.05Q206.88-22.05 206.51-21.9 206.13-21.75 206.13-21.5L206.13-21.5 206.13-1.5Q206.13-1.25 206.51-1.1 206.88-0.95 207.23-0.95L207.23-0.95 207.23 0 198.63 0 198.63-0.95Q198.98-0.95 199.36-1.1 199.73-1.25 199.73-1.5L199.73-1.5 199.73-21.5ZM239.58-23L239.58-22.05Q239.23-22.05 238.86-21.9 238.48-21.75 238.48-21.5L238.48-21.5 238.48-1.5Q238.48-1.25 238.86-1.1 239.23-0.95 239.58-0.95L239.58-0.95 239.58 0 232.18 0 232.18-2.75Q229.03 0.65 224.23 0.65L224.23 0.65Q220.58 0.65 217.81-0.83 215.03-2.3 213.51-5.05 211.98-7.8 211.98-11.45L211.98-11.45Q211.98-15 213.66-17.78 215.33-20.55 218.13-22.08 220.93-23.6 224.23-23.6L224.23-23.6Q229.03-23.6 232.18-19.9L232.18-19.9 232.18-23 239.58-23ZM224.98-4.65Q227.03-4.65 228.66-5.58 230.28-6.5 231.18-8.03 232.08-9.55 232.08-11.3L232.08-11.3Q232.08-14.3 230.11-16.25 228.13-18.2 224.98-18.2L224.98-18.2Q221.93-18.2 219.96-16.3 217.98-14.4 217.98-11.45L217.98-11.45Q217.98-8.35 220.01-6.5 222.03-4.65 224.98-4.65L224.98-4.65Z" fill="#0074d9" data-fill-palette-color="primary"></path></g></svg></g></svg></g></svg></g></svg></g><g transform="matrix(1,0,0,1,431.68220240186196,0)"><svg viewBox="0 0 57.42827693390096 88.87289359763811" height="88.87289359763811" width="57.42827693390096"><g><svg xmlns="http://www.w3.org/2000/svg" xmlns:xlink="http://www.w3.org/1999/xlink" version="1.1" x="0" y="0" viewBox="20.921694525787984 5 58.15664978352726 90.00008400313735" enable-background="new 0 0 100 100" xml:space="preserve" height="88.87289359763811" width="57.42827693390096" class="icon-icon-0" data-fill-palette-color="accent" id="icon-0"><g fill="#0074d9" data-fill-palette-color="accent"><path fill-rule="evenodd" clip-rule="evenodd" d="M49.999 5C97.367 5 74.296 46.732 67.173 66.223A6.6 6.6 0 0 1 64.759 69.385 6.6 6.6 0 0 1 60.967 70.575H39.004A6.6 6.6 0 0 1 35.218 69.399 6.6 6.6 0 0 1 32.803 66.245C25.555 46.597 2.775 5 49.999 5M34.966 33.28C34.794 33.011 33.805 31.335 33.623 31.068L35.463 29.813 36.673 31.816C38.023 30.703 39.413 29.775 40.998 29.77 43.044 29.765 44.74 31.466 46.431 33.163 47.736 34.471 49.043 35.78 49.993 35.778 50.94 35.777 52.253 34.453 53.561 33.132 55.248 31.429 56.939 29.722 58.982 29.719 60.533 29.717 61.902 30.604 63.231 31.684L64.933 29.825 66.773 31.08 64.941 33.136C66.387 35.271 66.828 35.434 68.954 36.494 67.349 36.499 64.959 36.563 63.587 35.43 58.008 45.811 59.124 55.084 60.278 66.11 61.493 66.11 62.495 66.059 62.989 64.706 68.889 48.56 92.699 9.463 49.999 9.463 7.425 9.463 30.973 48.419 36.987 64.708 37.485 66.061 38.519 66.11 39.717 66.11 40.844 55.13 41.824 45.898 36.312 35.577 34.832 36.441 32.68 36.454 31.101 36.459 32.984 35.021 33.946 34.987 34.966 33.28M61.853 33.957C60.804 33.08 59.793 32.345 58.982 32.347 58.039 32.347 56.731 33.668 55.425 34.988 53.735 36.695 52.041 38.403 49.994 38.406 47.955 38.411 46.259 36.715 44.568 35.019 43.263 33.71 41.955 32.397 40.999 32.398 40.17 32.401 39.126 33.183 38.046 34.097 43.966 44.805 44.34 54.586 43.102 66.113H56.93C55.655 54.539 55.863 44.723 61.853 33.957" fill="#0074d9" data-fill-palette-color="accent"></path><path fill-rule="evenodd" clip-rule="evenodd" d="M59.256 88.446C58.479 96.57 43.927 97.127 41.16 90.198 42.254 90.328 43.419 90.382 44.639 90.368A66 66 0 0 0 49.849 90.083 72 72 0 0 0 55.15 89.404 33 33 0 0 0 59.256 88.446" fill="#0074d9" data-fill-palette-color="accent"></path><path fill-rule="evenodd" clip-rule="evenodd" d="M36.898 77.787C36.611 74.849 62.951 72.138 63.248 75.163 63.547 78.191 37.188 80.725 36.898 77.787" fill="#0074d9" data-fill-palette-color="accent"></path><path fill-rule="evenodd" clip-rule="evenodd" d="M38.248 85.59C37.993 82.679 61.624 79.835 61.898 82.968 62.175 86.1 38.505 88.503 38.248 85.59" fill="#0074d9" data-fill-palette-color="accent"></path></g></svg></g></svg></g></svg></g><defs></defs></svg><rect width="395.52" height="71.86721274807829" fill="none" stroke="none" visibility="hidden"></rect></g></svg></g></svg>