<?xml version="1.0" encoding="UTF-8"?>
<svg xmlns="http://www.w3.org/2000/svg" xmlns:xlink="http://www.w3.org/1999/xlink" width="60px" height="60px" viewBox="0 0 60 60" version="1.1">
<defs>
<clipPath id="clip1">
  <path d="M 14.246094 5.980469 L 45.601562 5.980469 L 45.601562 42 L 14.246094 42 Z M 14.246094 5.980469 "/>
</clipPath>
<clipPath id="clip2">
  <path d="M 25 50 L 35 50 L 35 54.261719 L 25 54.261719 Z M 25 50 "/>
</clipPath>
</defs>
<g id="surface1">
<g clip-path="url(#clip1)" clip-rule="nonzero">
<path style=" stroke:none;fill-rule:evenodd;fill:rgb(0%,45.490196%,85.098039%);fill-opacity:1;" d="M 29.921875 5.859375 C 55.460938 5.859375 43.023438 28.359375 39.183594 38.871094 C 38.933594 39.558594 38.480469 40.152344 37.882812 40.574219 C 37.28125 40.992188 36.566406 41.21875 35.835938 41.214844 L 23.996094 41.214844 C 23.265625 41.21875 22.550781 40.996094 21.953125 40.582031 C 21.355469 40.160156 20.898438 39.566406 20.652344 38.882812 C 16.742188 28.289062 4.460938 5.859375 29.921875 5.859375 M 21.816406 21.105469 C 21.722656 20.960938 21.191406 20.058594 21.09375 19.914062 L 22.085938 19.238281 L 22.738281 20.316406 C 23.464844 19.71875 24.214844 19.21875 25.070312 19.214844 C 26.171875 19.210938 27.085938 20.128906 28 21.042969 C 28.703125 21.75 29.40625 22.457031 29.917969 22.453125 C 30.429688 22.453125 31.136719 21.738281 31.84375 21.027344 C 32.753906 20.109375 33.664062 19.1875 34.765625 19.1875 C 35.601562 19.1875 36.339844 19.664062 37.058594 20.246094 L 37.976562 19.246094 L 38.96875 19.921875 L 37.980469 21.03125 C 38.757812 22.179688 38.996094 22.269531 40.144531 22.839844 C 39.277344 22.84375 37.988281 22.878906 37.25 22.265625 C 34.242188 27.863281 34.84375 32.863281 35.464844 38.808594 C 36.121094 38.808594 36.660156 38.78125 36.925781 38.050781 C 40.109375 29.347656 52.945312 8.265625 29.921875 8.265625 C 6.96875 8.265625 19.664062 29.269531 22.90625 38.050781 C 23.175781 38.78125 23.734375 38.808594 24.378906 38.808594 C 24.988281 32.886719 25.515625 27.910156 22.542969 22.34375 C 21.746094 22.8125 20.585938 22.820312 19.734375 22.820312 C 20.75 22.046875 21.265625 22.027344 21.816406 21.105469 M 36.3125 21.472656 C 35.75 21 35.203125 20.601562 34.765625 20.605469 C 34.257812 20.605469 33.550781 21.316406 32.847656 22.027344 C 31.9375 22.949219 31.023438 23.871094 29.921875 23.871094 C 28.820312 23.875 27.90625 22.960938 26.996094 22.042969 C 26.289062 21.339844 25.585938 20.632812 25.070312 20.632812 C 24.625 20.632812 24.058594 21.054688 23.476562 21.546875 C 26.667969 27.320312 26.871094 32.59375 26.203125 38.808594 L 33.660156 38.808594 C 32.972656 32.570312 33.085938 27.277344 36.3125 21.472656 "/>
</g>
<g clip-path="url(#clip2)" clip-rule="nonzero">
<path style=" stroke:none;fill-rule:evenodd;fill:rgb(0%,45.490196%,85.098039%);fill-opacity:1;" d="M 34.914062 50.851562 C 34.496094 55.230469 26.648438 55.53125 25.15625 51.796875 C 25.746094 51.867188 26.375 51.894531 27.03125 51.886719 C 27.972656 51.875 28.90625 51.820312 29.84375 51.734375 C 30.796875 51.648438 31.753906 51.523438 32.699219 51.367188 C 33.449219 51.242188 34.1875 51.070312 34.914062 50.851562 "/>
</g>
<path style=" stroke:none;fill-rule:evenodd;fill:rgb(0%,45.490196%,85.098039%);fill-opacity:1;" d="M 22.859375 45.105469 C 22.703125 43.519531 36.90625 42.058594 37.066406 43.6875 C 37.226562 45.320312 23.015625 46.6875 22.859375 45.105469 "/>
<path style=" stroke:none;fill-rule:evenodd;fill:rgb(0%,45.490196%,85.098039%);fill-opacity:1;" d="M 23.585938 49.3125 C 23.449219 47.742188 36.191406 46.207031 36.339844 47.898438 C 36.488281 49.585938 23.726562 50.882812 23.585938 49.3125 "/>
</g>
</svg>
